<svg width="308.9" height="63.301" viewBox="0 0 308.9 63.301" xmlns="http://www.w3.org/2000/svg"><g id="svgGroup" stroke-linecap="round" fill-rule="evenodd" font-size="9pt" stroke="#000" stroke-width="0.25mm" fill="#000" style="stroke:#000;stroke-width:0.25mm;fill:#000"><path d="M 2.1 31.9 L 2.1 62.7 L 0 62.7 L 0 0 L 2.1 0 L 2.1 29.9 L 44.9 29.9 L 44.9 0 L 47 0 L 47 62.7 L 44.9 62.7 L 44.9 31.9 L 2.1 31.9 Z" id="0" vector-effect="non-scaling-stroke"/><path d="M 67.7 60.7 L 105.8 60.7 L 105.8 62.7 L 65.6 62.7 L 65.6 0 L 104.9 0 L 104.9 2 L 67.7 2 L 67.7 29.4 L 101.2 29.4 L 101.2 31.4 L 67.7 31.4 L 67.7 60.7 Z" id="1" vector-effect="non-scaling-stroke"/><path d="M 121.5 60.7 L 156.4 60.7 L 156.4 62.7 L 119.4 62.7 L 119.4 0 L 121.5 0 L 121.5 60.7 Z" id="2" vector-effect="non-scaling-stroke"/><path d="M 168.1 0 L 170.2 0 L 170.2 62.7 L 168.1 62.7 L 168.1 0 Z" id="3" vector-effect="non-scaling-stroke"/><path d="M 233 38.9 L 233 0 L 235.1 0 L 235.1 38.9 A 45.522 45.522 0 0 1 234.649 45.546 Q 234.145 48.952 233.077 51.666 A 17.161 17.161 0 0 1 229.4 57.5 A 17.198 17.198 0 0 1 222.995 61.515 Q 220.285 62.519 216.924 62.958 A 43.499 43.499 0 0 1 211.3 63.3 A 38.282 38.282 0 0 1 204.872 62.798 Q 201.49 62.22 198.828 60.979 A 16.232 16.232 0 0 1 193.85 57.45 A 17.599 17.599 0 0 1 190.18 51.363 Q 189.181 48.669 188.713 45.32 A 46.492 46.492 0 0 1 188.3 38.9 L 188.3 0 L 190.4 0 L 190.4 38.9 A 47.313 47.313 0 0 0 190.746 44.838 Q 191.702 52.368 195.3 56.15 A 14.55 14.55 0 0 0 200.745 59.659 Q 203.091 60.556 206.028 60.963 A 38.54 38.54 0 0 0 211.3 61.3 A 40.118 40.118 0 0 0 217.258 60.889 Q 224.233 59.839 227.9 56.1 A 15.187 15.187 0 0 0 231.154 50.877 Q 232.885 46.416 232.993 39.793 A 54.69 54.69 0 0 0 233 38.9 Z" id="4" vector-effect="non-scaling-stroke"/><path d="M 305.8 0 L 308.9 0 L 308.9 62.7 L 306.8 62.7 L 306.8 2.5 L 282.3 49.7 L 279.8 49.7 L 255.3 2.4 L 255.3 62.7 L 253.2 62.7 L 253.2 0 L 256.3 0 L 281.1 47.4 L 305.8 0 Z" id="5" vector-effect="non-scaling-stroke"/></g></svg>